<svg width="45" height="45" viewBox="0 0 45 45" fill="none" xmlns="http://www.w3.org/2000/svg">
<g clip-path="url(#clip0_2002_239)">
<path fill-rule="evenodd" clip-rule="evenodd" d="M0 0H45V45H0V0Z" fill="white"/>
<path fill-rule="evenodd" clip-rule="evenodd" d="M1.98067 41.4849H1.85203C1.85203 41.4207 1.81982 41.324 1.81982 41.2916C1.81982 41.2596 1.81982 41.1954 1.72317 41.1954H1.52987V41.4849H1.43322V40.8088H1.72317C1.85203 40.8088 1.94845 40.8412 1.94845 40.9696C1.94845 41.0663 1.91624 41.0987 1.88425 41.1305C1.91647 41.1629 1.94845 41.1951 1.94845 41.2596V41.3882C1.94845 41.4207 1.94845 41.4207 1.98067 41.4207V41.4849ZM1.85203 41.0021C1.85203 40.9054 1.7876 40.9054 1.75538 40.9054H1.52987V41.0987H1.72317C1.7876 41.0987 1.85203 41.0663 1.85203 41.0021V41.0021ZM2.39949 41.1307C2.39949 40.7446 2.07755 40.4222 1.65873 40.4222C1.27236 40.4222 0.950195 40.7446 0.950195 41.1307C0.950195 41.5493 1.27236 41.8717 1.65873 41.8717C2.07732 41.8715 2.39949 41.5493 2.39949 41.1307ZM2.30284 41.1307C2.30284 41.4851 2.01312 41.7426 1.65873 41.7426C1.30435 41.7426 1.04685 41.4849 1.04685 41.1307C1.04685 40.8088 1.30458 40.5188 1.65873 40.5188C2.01289 40.5188 2.30284 40.8088 2.30284 41.1307ZM41.9796 28.12C41.9796 29.0863 41.3677 29.5366 40.2725 29.5366H38.1796V28.5703H40.2725C40.4658 28.5703 40.6269 28.5383 40.6916 28.4741C40.7558 28.4095 40.8202 28.3128 40.8202 28.1842C40.8202 28.0551 40.756 27.9264 40.6916 27.8622C40.6269 27.7976 40.4983 27.7656 40.305 27.7656C39.307 27.7331 38.0507 27.7976 38.0507 26.3807C38.0507 25.7364 38.4693 25.0279 39.5965 25.0279H41.7541V25.9941H39.7573C39.5645 25.9941 39.4354 25.9941 39.3387 26.0583C39.2421 26.155 39.1779 26.2516 39.1779 26.4127C39.1779 26.5738 39.2745 26.6705 39.4032 26.7351C39.5323 26.7671 39.6611 26.7993 39.8222 26.7993H40.4016C41.0135 26.7993 41.4001 26.928 41.6579 27.1537C41.8507 27.379 41.9796 27.6692 41.9796 28.12V28.12ZM37.4386 27.1537C37.1809 26.928 36.7943 26.7993 36.1824 26.7993H35.603C35.4421 26.7993 35.313 26.7669 35.1844 26.7351C35.0553 26.6705 34.9591 26.5738 34.9591 26.4127C34.9591 26.2516 34.9911 26.155 35.1199 26.0583C35.2166 25.9941 35.3452 25.9941 35.5385 25.9941H37.5353V25.0279H35.3777C34.2181 25.0279 33.8315 25.7364 33.8315 26.3807C33.8315 27.7973 35.0877 27.7331 36.0862 27.7656C36.2791 27.7656 36.4082 27.7976 36.4724 27.8622C36.5366 27.9264 36.6015 28.0551 36.6015 28.1842C36.6015 28.3128 36.5368 28.4095 36.4724 28.4741C36.3757 28.5383 36.2471 28.5703 36.0538 28.5703H33.9604V29.5366H36.0538C37.1484 29.5366 37.7606 29.086 37.7606 28.12C37.7606 27.6692 37.6319 27.379 37.4386 27.1537V27.1537ZM33.3163 28.603H30.7725V27.7012H33.2521V26.7998H30.7725V25.9621H33.3163V25.0283H29.7096V29.5368H33.3163V28.603ZM28.55 25.2538C28.1956 25.0605 27.7771 25.0281 27.2296 25.0281H24.7501V29.5366H25.8447V27.8942H27.0043C27.3905 27.8942 27.6162 27.9267 27.7773 28.0875C27.9706 28.3128 27.9706 28.6994 27.9706 28.9894V29.5366H29.0331V28.667C29.0331 28.2484 29.0011 28.0551 28.8722 27.8298C28.7756 27.7007 28.5827 27.5398 28.325 27.4432C28.6145 27.347 29.098 26.9604 29.098 26.2516C29.0977 25.7366 28.9044 25.4467 28.55 25.2538V25.2538ZM22.4312 25.0281H18.9851L17.6003 26.5096L16.2798 25.0281H11.9322V29.5366H16.2156L17.6005 28.0551L18.9209 29.5366H21.0143V28.0233H22.367C23.3008 28.0233 24.2351 27.7656 24.2351 26.5096C24.2348 25.2858 23.2686 25.0281 22.4312 25.0281ZM27.6804 26.8962C27.5196 26.9604 27.3585 26.9604 27.1652 26.9604L25.8447 26.9929V25.9619H27.1652C27.3585 25.9619 27.5518 25.9619 27.6804 26.0586C27.8095 26.1232 27.9057 26.2519 27.9057 26.4452C27.9057 26.6385 27.8095 26.7996 27.6804 26.8962V26.8962ZM22.4312 27.1215H21.0141V25.9619H22.4312C22.8178 25.9619 23.0753 26.1232 23.0753 26.5096C23.0753 26.8962 22.8175 27.1215 22.4312 27.1215ZM18.2766 27.2823L19.9512 25.5113V29.1505L18.2766 27.2823ZM15.6679 28.603H12.9949V27.7012H15.378V26.7998H12.9949V25.9621H15.7002L16.8917 27.2826L15.6679 28.603V28.603ZM38.9843 21.7754H37.4386L35.4097 18.3937V21.7754H33.2201L32.801 20.7769H30.5468L30.1282 21.7754H28.872C28.3567 21.7754 27.6804 21.6465 27.2943 21.2599C26.9399 20.8735 26.7466 20.3583 26.7466 19.5531C26.7466 18.8768 26.8432 18.2649 27.326 17.7819C27.648 17.4275 28.2279 17.2666 28.9684 17.2666H29.9989V18.2329H28.9684C28.5823 18.2329 28.3565 18.2973 28.1312 18.4906C27.9379 18.6839 27.8413 19.0381 27.8413 19.5211C27.8413 20.0041 27.9379 20.3585 28.1312 20.584C28.2921 20.7449 28.5823 20.8093 28.8717 20.8093H29.355L30.9007 17.2669H32.5111L34.3145 21.5178V17.2666H35.9893L37.8894 20.3905V17.2666H38.9841V21.7754H38.9843V21.7754ZM26.1991 17.2666H25.1045V21.7754H26.1991V17.2666V17.2666ZM23.9124 17.4599C23.5581 17.2666 23.1719 17.2666 22.6245 17.2666H20.1445V21.7754H21.2071V20.1328H22.3665C22.7531 20.1328 23.0108 20.165 23.1717 20.3261C23.365 20.5516 23.3325 20.9382 23.3325 21.1957V21.7754H24.4272V20.8735C24.4272 20.4871 24.3952 20.2938 24.2344 20.0683C24.1377 19.9395 23.9444 19.7784 23.7191 19.682C24.0086 19.5531 24.4921 19.1989 24.4921 18.4904C24.4923 17.9752 24.2666 17.6852 23.9124 17.4599ZM19.3715 20.8415H16.8595V19.9397H19.3393V19.0059H16.8595V18.2007H19.3715V17.2669H15.7646V21.7756H19.3715V20.8415ZM14.9594 17.2666H13.1882L11.8678 20.3261L10.4507 17.2666H8.71167V21.5176L6.876 17.2666H5.26586L3.33354 21.7754H4.49289L4.91147 20.7769H7.16572L7.58431 21.7754H9.77436V18.2329L11.3523 21.7754H12.2861L13.8643 18.2329V21.7754H14.9592V17.2666H14.9594ZM32.4149 19.8108L31.6739 18.0396L30.9334 19.8108H32.4149ZM23.0753 19.1025C22.9144 19.1992 22.7533 19.1992 22.5278 19.1992H21.2071V18.2009H22.5276C22.7209 18.2009 22.9459 18.2009 23.075 18.2653C23.2037 18.362 23.2683 18.4909 23.2683 18.6839C23.2683 18.877 23.2039 19.0378 23.0753 19.1025V19.1025ZM5.29784 19.8108L6.0386 18.0396L6.77935 19.8108H5.29784V19.8108ZM41.7221 3.12854H3.30109V19.36L4.62152 16.365H7.42322L7.80983 17.1058V16.365H11.0948L11.8355 17.9752L12.5441 16.365H23.0108C23.4936 16.365 23.9122 16.4617 24.2346 16.7192V16.365H27.1007V16.7192C27.5835 16.4614 28.1954 16.365 28.9042 16.365H33.0585L33.4451 17.1058V16.365H36.5046L36.9556 17.1058V16.365H39.9504V22.6772H36.9234L36.344 21.7112V22.6772H32.5757L32.1572 21.6467H31.2229L30.8043 22.6772H28.84C28.067 22.6772 27.4871 22.4839 27.101 22.2908V22.6772H22.4312V21.2279C22.4312 21.0346 22.3989 21.0024 22.2701 21.0024H22.1092V22.677H13.0915V21.8718L12.7696 22.677H10.8695L10.5476 21.904V22.677H6.90822L6.52185 21.6465H5.58779L5.16921 22.677H3.30109V41.7104H41.7221V30.1485C41.3035 30.3418 40.7236 30.4384 40.1439 30.4384H37.342V30.0518C37.02 30.3098 36.4401 30.4384 35.8929 30.4384H27.0685V28.9894C27.0685 28.7961 27.0365 28.7961 26.8752 28.7961H26.7144V30.4384H23.8158V28.7316C23.333 28.9569 22.7853 28.9569 22.3023 28.9569H21.9801V30.4384H18.4377L17.6005 29.4722L16.6667 30.4384H10.9659V24.1265H16.7629L17.6003 25.0923L18.5021 24.1265H22.3989C22.8495 24.1265 23.5905 24.1907 23.9124 24.5126V24.1265H27.3905C27.7448 24.1265 28.4214 24.1907 28.872 24.5126V24.1265H34.1215V24.5129C34.4114 24.2551 34.9591 24.1267 35.4419 24.1267H38.3725V24.5129C38.6949 24.2876 39.1454 24.1267 39.7253 24.1267H41.7221V3.12854V3.12854Z" fill="#0077A6"/>
</g>
<defs>
<clipPath id="clip0_2002_239">
<rect width="45" height="45" fill="white"/>
</clipPath>
</defs>
</svg>
